<svg width="32" height="33" viewBox="0 0 32 33" fill="none" xmlns="http://www.w3.org/2000/svg">
<circle cx="16" cy="16.5217" r="16" fill="#00A827"/>
<path d="M15.9999 5.97998C15.4812 5.97998 15.0069 6.42081 15.0416 6.93831L15.5208 19.8758C15.5208 20.0029 15.5712 20.1248 15.6611 20.2146C15.751 20.3045 15.8728 20.355 15.9999 20.355C16.127 20.355 16.2489 20.3045 16.3387 20.2146C16.4286 20.1248 16.4791 20.0029 16.4791 19.8758L16.9583 6.93831C16.993 6.42081 16.5186 5.97998 15.9999 5.97998Z" fill="white" stroke="white" stroke-linecap="round" stroke-linejoin="round"/>
<path d="M16 27.0634C16.5292 27.0634 16.9583 26.6343 16.9583 26.1051C16.9583 25.5758 16.5292 25.1467 16 25.1467C15.4707 25.1467 15.0416 25.5758 15.0416 26.1051C15.0416 26.6343 15.4707 27.0634 16 27.0634Z" fill="white" stroke="white" stroke-linecap="round" stroke-linejoin="round"/>
</svg>
