<svg width="42" height="42" viewBox="0 0 42 42" fill="none" xmlns="http://www.w3.org/2000/svg">
<path d="M32.8125 39.375C32.4915 39.3759 32.1813 39.2592 31.9405 39.0469L21 29.3188L10.0595 39.0469C9.87017 39.2152 9.63618 39.3251 9.38577 39.3634C9.13536 39.4016 8.87923 39.3666 8.64828 39.2625C8.41733 39.1585 8.22143 38.9898 8.08422 38.7768C7.947 38.5639 7.87434 38.3158 7.875 38.0625V7.875C7.87652 6.48308 8.43014 5.1486 9.41437 4.16437C10.3986 3.18013 11.7331 2.62652 13.125 2.625H28.875C30.2669 2.62652 31.6014 3.18013 32.5856 4.16437C33.5699 5.1486 34.1235 6.48308 34.125 7.875V38.0625C34.125 38.4106 33.9867 38.7444 33.7406 38.9906C33.4944 39.2367 33.1606 39.375 32.8125 39.375Z" fill="#00A827"/>
</svg>
