<svg width="49" height="48" viewBox="0 0 49 48" fill="none" xmlns="http://www.w3.org/2000/svg">
<circle cx="24.3242" cy="24" r="24" fill="white"/>
<path d="M36.7463 11.3281C36.655 11.2278 36.5443 11.147 36.4208 11.0907C36.2974 11.0343 36.1638 11.0036 36.0282 11.0003C35.8925 10.997 35.7576 11.0213 35.6316 11.0716C35.5056 11.122 35.3911 11.1973 35.2951 11.2931L34.522 12.0625C34.4283 12.1563 34.3756 12.2834 34.3756 12.416C34.3756 12.5485 34.4283 12.6756 34.522 12.7694L35.2307 13.4769C35.2772 13.5236 35.3324 13.5606 35.3932 13.5859C35.454 13.6112 35.5192 13.6242 35.5851 13.6242C35.6509 13.6242 35.7161 13.6112 35.777 13.5859C35.8378 13.5606 35.893 13.5236 35.9395 13.4769L36.6932 12.7269C37.0745 12.3463 37.1101 11.7263 36.7463 11.3281ZM32.9588 13.625L21.6763 24.8875C21.6079 24.9556 21.5582 25.0402 21.532 25.1331L21.0101 26.6875C20.9976 26.7297 20.9967 26.7745 21.0075 26.8171C21.0183 26.8597 21.0405 26.8987 21.0716 26.9298C21.1027 26.9609 21.1416 26.983 21.1842 26.9938C21.2269 27.0047 21.2717 27.0038 21.3138 26.9913L22.867 26.4694C22.9599 26.4431 23.0444 26.3934 23.1126 26.325L34.3751 15.0413C34.4793 14.936 34.5377 14.7938 34.5377 14.6456C34.5377 14.4975 34.4793 14.3553 34.3751 14.25L33.7532 13.625C33.6478 13.5199 33.5049 13.4608 33.356 13.4608C33.2071 13.4608 33.0643 13.5199 32.9588 13.625Z" fill="#00A827"/>
<path d="M32.1463 20.1038L24.5281 27.7369C24.2337 28.032 23.8718 28.2511 23.4738 28.375L21.855 28.9169C21.4708 29.0254 21.0647 29.0295 20.6784 28.9287C20.2921 28.828 19.9397 28.6261 19.6574 28.3438C19.3752 28.0616 19.1733 27.7091 19.0725 27.3228C18.9718 26.9366 18.9759 26.5304 19.0844 26.1463L19.6263 24.5275C19.7498 24.1296 19.9684 23.7677 20.2631 23.4731L27.8963 15.8538C27.9662 15.7839 28.0139 15.6948 28.0332 15.5978C28.0526 15.5008 28.0427 15.4003 28.0049 15.3089C27.9671 15.2175 27.9031 15.1394 27.8209 15.0844C27.7387 15.0294 27.642 15 27.5431 15H14.5C13.5717 15 12.6815 15.3687 12.0251 16.0251C11.3687 16.6815 11 17.5717 11 18.5V33.5C11 34.4283 11.3687 35.3185 12.0251 35.9749C12.6815 36.6313 13.5717 37 14.5 37H29.5C30.4283 37 31.3185 36.6313 31.9749 35.9749C32.6313 35.3185 33 34.4283 33 33.5V20.4569C33 20.358 32.9706 20.2613 32.9156 20.1791C32.8606 20.0969 32.7825 20.0329 32.6911 19.9951C32.5997 19.9573 32.4992 19.9474 32.4022 19.9668C32.3052 19.9861 32.2161 20.0338 32.1463 20.1038Z" fill="#00A827"/>
</svg>
