<svg width="29" height="29" viewBox="0 0 29 29" fill="none" xmlns="http://www.w3.org/2000/svg">
<path d="M25.653 3.41213C25.5731 3.32432 25.4762 3.25363 25.3682 3.20432C25.2602 3.15501 25.1434 3.12812 25.0247 3.12526C24.906 3.12239 24.7879 3.14362 24.6777 3.18767C24.5674 3.23171 24.4672 3.29765 24.3832 3.3815L23.7067 4.0547C23.6247 4.13674 23.5787 4.24798 23.5787 4.36396C23.5787 4.47994 23.6247 4.59118 23.7067 4.67322L24.3269 5.29228C24.3675 5.33312 24.4158 5.36553 24.469 5.38765C24.5223 5.40976 24.5793 5.42114 24.6369 5.42114C24.6946 5.42114 24.7516 5.40976 24.8048 5.38765C24.858 5.36553 24.9064 5.33312 24.947 5.29228L25.6066 4.63603C25.9401 4.30298 25.9713 3.76048 25.653 3.41213ZM22.339 5.42189L12.4668 15.2766C12.4069 15.3362 12.3634 15.4102 12.3405 15.4915L11.8838 16.8516C11.8729 16.8885 11.8721 16.9277 11.8816 16.965C11.891 17.0023 11.9104 17.0363 11.9376 17.0635C11.9648 17.0908 11.9989 17.1101 12.0362 17.1196C12.0735 17.1291 12.1127 17.1283 12.1496 17.1174L13.5086 16.6607C13.5899 16.6378 13.6639 16.5942 13.7235 16.5344L23.5782 6.66111C23.6694 6.56896 23.7205 6.44457 23.7205 6.31494C23.7205 6.18531 23.6694 6.06091 23.5782 5.96877L23.034 5.42189C22.9418 5.32989 22.8168 5.27822 22.6865 5.27822C22.5562 5.27822 22.4312 5.32989 22.339 5.42189Z" fill="white"/>
<path d="M21.628 11.0908L14.9621 17.7698C14.7045 18.028 14.3878 18.2197 14.0395 18.3281L12.6231 18.8023C12.287 18.8972 11.9316 18.9008 11.5936 18.8126C11.2556 18.7245 10.9472 18.5478 10.7002 18.3008C10.4533 18.0539 10.2766 17.7455 10.1885 17.4075C10.1003 17.0695 10.1039 16.7141 10.1988 16.378L10.673 14.9616C10.7811 14.6134 10.9724 14.2967 11.2302 14.039L17.9092 7.37203C17.9704 7.31088 18.0122 7.23294 18.0291 7.14808C18.046 7.06322 18.0374 6.97524 18.0043 6.89528C17.9712 6.81532 17.9152 6.74696 17.8433 6.69885C17.7713 6.65074 17.6868 6.62504 17.6002 6.625H6.1875C5.37527 6.625 4.59632 6.94766 4.02199 7.52199C3.44766 8.09632 3.125 8.87527 3.125 9.6875V22.8125C3.125 23.6247 3.44766 24.4037 4.02199 24.978C4.59632 25.5523 5.37527 25.875 6.1875 25.875H19.3125C20.1247 25.875 20.9037 25.5523 21.478 24.978C22.0523 24.4037 22.375 23.6247 22.375 22.8125V11.3998C22.375 11.3132 22.3493 11.2287 22.3011 11.1567C22.253 11.0848 22.1847 11.0288 22.1047 10.9957C22.0248 10.9626 21.9368 10.954 21.8519 10.9709C21.7671 10.9878 21.6891 11.0296 21.628 11.0908Z" fill="white"/>
</svg>
