<svg width="65" height="64" viewBox="0 0 65 64" fill="none" xmlns="http://www.w3.org/2000/svg">
<circle cx="32.3335" cy="32" r="32" fill="white"/>
<path d="M32.0001 50.75C31.3729 50.7492 30.7604 50.5597 30.2423 50.2061C22.5675 44.9961 19.2442 41.4238 17.4112 39.1904C13.505 34.4297 11.6349 29.542 11.6876 24.249C11.7491 18.1836 16.6153 13.25 22.5353 13.25C26.84 13.25 29.8214 15.6748 31.5577 17.6943C31.6127 17.7577 31.6807 17.8084 31.757 17.8432C31.8333 17.878 31.9162 17.8961 32.0001 17.8961C32.084 17.8961 32.1669 17.878 32.2432 17.8432C32.3195 17.8084 32.3875 17.7577 32.4425 17.6943C34.1788 15.6729 37.1603 13.25 41.465 13.25C47.3849 13.25 52.2511 18.1836 52.3126 24.25C52.3653 29.5439 50.4933 34.4316 46.589 39.1914C44.756 41.4248 41.4327 44.9971 33.7579 50.207C33.2397 50.5603 32.6273 50.7495 32.0001 50.75Z" fill="#00A827"/>
</svg>
