<svg width="41" height="40" viewBox="0 0 41 40" fill="none" xmlns="http://www.w3.org/2000/svg">
<path d="M20.6666 35C20.1648 34.9994 19.6748 34.8477 19.2604 34.5648C13.1205 30.3969 10.462 27.5391 8.99555 25.7523C5.87055 21.9438 4.37445 18.0336 4.41664 13.7992C4.46586 8.94688 8.35883 5 13.0948 5C16.5385 5 18.9237 6.93984 20.3127 8.55547C20.3567 8.60613 20.4111 8.64676 20.4722 8.6746C20.5332 8.70244 20.5995 8.71685 20.6666 8.71685C20.7337 8.71685 20.8001 8.70244 20.8611 8.6746C20.9222 8.64676 20.9765 8.60613 21.0205 8.55547C22.4096 6.93828 24.7948 5 28.2385 5C32.9745 5 36.8674 8.94688 36.9166 13.8C36.9588 18.0352 35.4612 21.9453 32.3377 25.7531C30.8713 27.5398 28.2127 30.3977 22.0729 34.5656C21.6583 34.8482 21.1684 34.9996 20.6666 35Z" fill="#00A827"/>
</svg>
