<svg width="42" height="42" viewBox="0 0 42 42" fill="none" xmlns="http://www.w3.org/2000/svg">
<path d="M12.3356 20.8097L14.1354 18.8984L15.091 19.8007C21.131 25.4904 27.1915 28.9521 34.3233 30.7166C35.2855 28.0916 35.3708 25.2025 34.5398 22.3839C33.4373 18.6441 30.8697 15.3858 27.1168 12.9618C23.8151 10.829 20.8332 10.3294 17.6758 9.8003C15.9433 9.50991 14.1485 9.20967 12.1921 8.61659C8.60073 7.52721 4.83467 4.29026 4.79694 4.25827L2.73959 2.47327L2.62475 5.19506C2.61655 5.40506 2.42623 10.4098 3.79123 17.3168C5.23334 24.6176 7.91248 30.1014 11.754 33.6107C14.8712 36.4564 18.9416 38.0322 22.9865 38.0322C23.7493 38.0327 24.5111 37.9759 25.2654 37.8624C28.6877 37.3439 31.535 35.6254 33.1404 33.1251C25.7986 31.2154 19.5273 27.5839 13.2888 21.7096L12.3356 20.8097Z" fill="white"/>
<path d="M38.344 31.5156C36.9634 31.3031 35.6263 31.0365 34.3245 30.7141C34.0565 31.4447 33.7235 32.1497 33.3295 32.8207C33.2687 32.9232 33.2056 33.0249 33.1416 33.125C34.7247 33.535 36.3278 33.8635 37.9445 34.1094L39.2423 34.3095L39.6409 31.7149L38.344 31.5156Z" fill="white"/>
</svg>
