<svg width="24" height="25" viewBox="0 0 24 25" fill="none" xmlns="http://www.w3.org/2000/svg">
<path d="M7.04892 12.3913L8.07736 11.2991L8.62345 11.8147C12.0749 15.066 15.538 17.0441 19.6133 18.0524C20.1631 16.5524 20.2119 14.9015 19.737 13.2908C19.107 11.1538 17.6399 9.29192 15.4953 7.90677C13.6086 6.68802 11.9047 6.40255 10.1005 6.10021C9.11048 5.93427 8.08486 5.76271 6.96689 5.4238C4.9147 4.8013 2.76267 2.95161 2.74111 2.93333L1.56548 1.91333L1.49986 3.46864C1.49517 3.58864 1.38642 6.44849 2.16642 10.3954C2.99048 14.5672 4.52142 17.7008 6.71658 19.7061C8.49783 21.3322 10.8238 22.2327 13.1352 22.2327C13.571 22.233 14.0063 22.2005 14.4374 22.1357C16.393 21.8394 18.02 20.8574 18.9374 19.4286C14.742 18.3374 11.1585 16.2622 7.59361 12.9055L7.04892 12.3913Z" fill="#00A827"/>
<path d="M21.9108 18.5089C21.1219 18.3875 20.3578 18.2351 19.6139 18.0509C19.4608 18.4684 19.2705 18.8712 19.0453 19.2547C19.0106 19.3132 18.9746 19.3714 18.938 19.4286C19.8426 19.6628 20.7587 19.8506 21.6825 19.9911L22.4241 20.1054L22.6519 18.6228L21.9108 18.5089Z" fill="#00A827"/>
</svg>
