<svg width="165" height="165" viewBox="0 0 165 165" fill="none" xmlns="http://www.w3.org/2000/svg">
<path d="M51.9979 77.9883C52.4621 77.4952 53.0189 77.0983 53.6365 76.8205C54.2541 76.5426 54.9204 76.3891 55.5974 76.3687C56.2743 76.3484 56.9486 76.4616 57.5818 76.7019C58.2149 76.9421 58.7946 77.3048 59.2876 77.7691C83.016 100.121 106.825 113.721 134.843 120.653C138.623 110.341 138.958 98.9903 135.694 87.9173C131.362 73.2252 121.275 60.4248 106.532 50.9019C93.3704 42.4005 80.2155 40.1865 67.4892 38.0467C51.434 35.3461 36.2681 32.7938 21.7952 17.47C20.1839 15.7749 17.9892 15.0949 15.8913 15.646C13.4936 16.2905 11.8855 18.1855 11.1153 21.3179C9.31062 28.6494 10.4708 49.1971 15.5465 70.8888C23.6966 105.739 36.7032 123.373 46.181 132.032C58.4271 143.212 74.4179 149.402 90.3089 149.402C93.3042 149.407 96.2957 149.187 99.2582 148.745C112.7 146.708 123.889 139.957 130.196 130.134C101.356 122.632 76.7189 108.365 52.2074 85.2876C51.7135 84.8226 51.3162 84.2647 51.0383 83.6459C50.7604 83.0271 50.6074 82.3595 50.5879 81.6814C50.5684 81.0033 50.683 80.3281 50.9249 79.6944C51.1669 79.0606 51.5315 78.4809 51.9979 77.9883ZM150.637 123.811C145.213 122.977 139.96 121.929 134.846 120.663C133.794 123.533 132.486 126.303 130.937 128.938C130.702 129.341 130.453 129.741 130.199 130.134C136.419 131.744 142.718 133.035 149.071 134.001C149.747 134.12 150.44 134.103 151.109 133.95C151.778 133.798 152.41 133.513 152.968 133.113C153.525 132.714 153.998 132.206 154.357 131.622C154.716 131.037 154.955 130.386 155.06 129.708C155.164 129.029 155.132 128.337 154.965 127.671C154.799 127.006 154.501 126.38 154.089 125.83C153.678 125.281 153.161 124.82 152.568 124.473C151.976 124.126 151.321 123.901 150.64 123.811H150.637Z" fill="#00DB33" fill-opacity="0.55"/>
</svg>
