<svg width="25" height="25" viewBox="0 0 25 25" fill="none" xmlns="http://www.w3.org/2000/svg">
<path d="M14.75 16.25V18.125C14.75 18.6223 14.5525 19.0992 14.2008 19.4508C13.8492 19.8025 13.3723 20 12.875 20H5.375C4.87772 20 4.40081 19.8025 4.04917 19.4508C3.69754 19.0992 3.5 18.6223 3.5 18.125V6.875C3.5 6.37772 3.69754 5.90081 4.04917 5.54917C4.40081 5.19754 4.87772 5 5.375 5H12.5C13.5355 5 14.75 5.83953 14.75 6.875V8.75M17.75 16.25L21.5 12.5L17.75 8.75M8.75 12.5H20.75" stroke="white" stroke-width="2" stroke-linecap="round" stroke-linejoin="round"/>
</svg>
