<svg width="140" height="147" viewBox="0 0 140 147" fill="none" xmlns="http://www.w3.org/2000/svg">
<path d="M97.7727 64.6068C100.647 64.615 103.495 64.0285 106.15 62.8812C108.806 61.7338 111.217 60.0485 113.244 57.9227L134.298 35.98C135.964 34.2434 136.117 31.4175 134.531 29.5953C134.133 29.1375 133.65 28.7689 133.111 28.5117C132.572 28.2545 131.988 28.1142 131.396 28.0993C130.803 28.0843 130.214 28.1951 129.664 28.4248C129.114 28.6545 128.614 28.9984 128.195 29.4356L109.429 48.9916C108.799 49.6479 107.945 50.0166 107.055 50.0166C106.164 50.0166 105.31 49.6479 104.68 48.9916C103.37 47.6286 103.441 45.3245 104.748 43.9615L123.432 24.4768C123.851 24.04 124.18 23.519 124.4 22.9455C124.62 22.3721 124.726 21.7579 124.712 21.1404C124.698 20.5229 124.563 19.9149 124.317 19.3532C124.071 18.7914 123.718 18.2877 123.279 17.8725C122.487 17.1236 121.455 16.7115 120.386 16.7177C119.174 16.7185 118.013 17.2211 117.157 18.1149L98.4891 37.5797C97.859 38.236 97.0049 38.6046 96.1143 38.6046C95.2237 38.6046 94.3696 38.236 93.7395 37.5797C92.4325 36.2166 92.5008 33.9126 93.8078 32.5495L112.492 13.0705C112.911 12.6337 113.24 12.1128 113.46 11.5393C113.68 10.9658 113.786 10.3517 113.772 9.73419C113.758 9.11669 113.623 8.50864 113.377 7.94691C113.13 7.38518 112.777 6.88146 112.339 6.46629C111.547 5.71736 110.515 5.30527 109.446 5.31141C108.234 5.3129 107.073 5.8154 106.216 6.70867L85.1754 28.6514C83.1368 30.7655 81.5206 33.2803 80.4204 36.0503C79.3203 38.8202 78.7579 41.7903 78.766 44.7884V47.1353C78.7665 47.7353 78.6535 48.3295 78.4334 48.8839C78.2133 49.4383 77.8906 49.942 77.4836 50.3661L67.7465 60.5234C67.6449 60.6294 67.5243 60.7135 67.3915 60.7709C67.2587 60.8283 67.1164 60.8579 66.9727 60.8579C66.8289 60.8579 66.6866 60.8283 66.5538 60.7709C66.4211 60.7135 66.3004 60.6294 66.1989 60.5234L18.8176 11.1086C17.9998 10.2549 16.891 9.7737 15.7339 9.77049C14.5767 9.76729 13.4655 10.2423 12.6434 11.0915C8.50081 15.3717 6.2887 21.4142 6.2887 28.563C6.26135 40.3685 12.2114 53.9419 21.8172 63.9452L45.1825 88.3118C48.5033 91.768 53.0033 93.7093 57.695 93.7098C59.1907 93.7105 60.6803 93.5111 62.1274 93.1167C62.4907 93.0175 62.8647 92.9667 63.2403 92.9656C64.3386 92.9658 65.3963 93.3986 66.2016 94.1775L69.316 97.1773C70.1193 98.0332 70.5706 99.1821 70.5739 100.38V101.959C70.5659 105.551 71.9192 109 74.3391 111.555L98.9621 137.667L98.9868 137.695C101.72 140.545 105.426 142.146 109.291 142.145C113.156 142.145 116.862 140.544 119.594 137.694C122.327 134.844 123.862 130.978 123.862 126.948C123.861 122.918 122.326 119.053 119.593 116.203L82.6844 77.7126C82.5827 77.6066 82.502 77.4808 82.447 77.3424C82.392 77.2039 82.3636 77.0555 82.3636 76.9056C82.3636 76.7557 82.392 76.6073 82.447 76.4688C82.502 76.3303 82.5827 76.2045 82.6844 76.0986L92.4215 65.9442C92.8279 65.5201 93.3104 65.1837 93.8415 64.9542C94.3727 64.7248 94.9419 64.6067 95.5168 64.6068H97.7727Z" fill="white" fill-opacity="0.35"/>
<path d="M57.695 102.835C50.6904 102.82 43.974 99.9252 39.0028 94.7791L35.2129 90.8269C34.8028 90.4002 34.2472 90.1606 33.668 90.1606C33.0888 90.1606 32.5332 90.4002 32.1231 90.8269L8.88089 114.94C4.73831 119.26 3.25901 125.619 5.3098 131.847C5.42458 132.197 5.56066 132.54 5.71722 132.873C8.4762 138.764 13.8301 142.186 19.6871 142.186C21.7014 142.192 23.6966 141.78 25.5571 140.975C27.4177 140.17 29.1067 138.989 30.5262 137.498L61.5231 105.019C61.6536 104.88 61.7534 104.713 61.8158 104.53C61.8781 104.347 61.9014 104.152 61.884 103.958V103.884C61.8719 103.706 61.8253 103.533 61.7471 103.374C61.669 103.216 61.5609 103.075 61.4293 102.962C61.2977 102.848 61.1454 102.763 60.9815 102.712C60.8176 102.662 60.6456 102.646 60.4758 102.667C59.5523 102.773 58.6241 102.829 57.695 102.835Z" fill="white" fill-opacity="0.35"/>
</svg>
