<svg width="38" height="38" viewBox="0 0 38 38" fill="none" xmlns="http://www.w3.org/2000/svg">
<path d="M14.25 10.8359C14.25 10.8359 12.442 9.94531 19 9.94531C21.3486 9.94531 23.6446 10.6418 25.5974 11.9466C27.5502 13.2515 29.0723 15.1061 29.9711 17.2759C30.8699 19.4458 31.105 21.8335 30.6468 24.137C30.1886 26.4405 29.0576 28.5565 27.3969 30.2172C25.7361 31.878 23.6202 33.0089 21.3167 33.4671C19.0132 33.9253 16.6255 33.6902 14.4556 32.7914C12.2858 31.8926 10.4311 30.3705 9.12629 28.4177C7.82145 26.4649 7.125 24.169 7.125 21.8203" stroke="#00DB33" stroke-width="2" stroke-miterlimit="10" stroke-linecap="round"/>
<path d="M19 4.30469L13.0625 10.2422L19 16.1797" stroke="#00DB33" stroke-width="2" stroke-linecap="round" stroke-linejoin="round"/>
</svg>
