<svg width="38" height="38" viewBox="0 0 38 38" fill="none" xmlns="http://www.w3.org/2000/svg">
<path d="M23.75 10.8359C23.75 10.8359 25.558 9.94531 19 9.94531C16.6514 9.94531 14.3554 10.6418 12.4026 11.9466C10.4498 13.2515 8.92773 15.1061 8.02894 17.2759C7.13015 19.4458 6.89498 21.8335 7.35318 24.137C7.81138 26.4405 8.94236 28.5565 10.6031 30.2172C12.2639 31.878 14.3798 33.0089 16.6833 33.4671C18.9868 33.9253 21.3745 33.6902 23.5444 32.7914C25.7142 31.8926 27.5689 30.3705 28.8737 28.4177C30.1785 26.4649 30.875 24.169 30.875 21.8203" stroke="#00DB33" stroke-width="2" stroke-miterlimit="10" stroke-linecap="round"/>
<path d="M19 4.30469L24.9375 10.2422L19 16.1797" stroke="#00DB33" stroke-width="2" stroke-linecap="round" stroke-linejoin="round"/>
</svg>
