<svg width="64" height="64" viewBox="0 0 64 64" fill="none" xmlns="http://www.w3.org/2000/svg">
<circle cx="32" cy="32" r="32" fill="white"/>
<path d="M46.0625 53.875C45.6804 53.8761 45.311 53.7371 45.0244 53.4844L32 41.9033L18.9756 53.4844C18.7502 53.6847 18.4716 53.8156 18.1735 53.8611C17.8754 53.9067 17.5705 53.865 17.2956 53.7411C17.0206 53.6172 16.7874 53.4164 16.6241 53.1629C16.4607 52.9094 16.3742 52.6141 16.375 52.3125V16.375C16.3768 14.718 17.0359 13.1293 18.2076 11.9576C19.3793 10.7859 20.968 10.1268 22.625 10.125H41.375C43.0321 10.1268 44.6207 10.7859 45.7924 11.9576C46.9641 13.1293 47.6232 14.718 47.625 16.375V52.3125C47.625 52.7269 47.4604 53.1243 47.1674 53.4174C46.8743 53.7104 46.4769 53.875 46.0625 53.875Z" fill="#00A827"/>
</svg>
