<svg width="48" height="49" viewBox="0 0 48 49" fill="none" xmlns="http://www.w3.org/2000/svg">
<path d="M20.7272 6.5C17.8144 6.5 14.9671 7.36373 12.5452 8.98198C10.1233 10.6002 8.23571 12.9003 7.12105 15.5913C6.00638 18.2824 5.71473 21.2435 6.28299 24.1003C6.85124 26.9571 8.25387 29.5812 10.3135 31.6409C12.3731 33.7005 14.9973 35.1031 17.8541 35.6714C20.7109 36.2396 23.672 35.948 26.363 34.8333C29.0541 33.7187 31.3542 31.831 32.9724 29.4092C34.5906 26.9873 35.4544 24.1399 35.4544 21.2272C35.4541 17.3214 33.9024 13.5756 31.1406 10.8138C28.3788 8.05194 24.633 6.50025 20.7272 6.5Z" stroke="#00DB33" stroke-width="2" stroke-miterlimit="10"/>
<path d="M31.7146 32.2146L41.9999 42.4999" stroke="#00DB33" stroke-width="2" stroke-miterlimit="10" stroke-linecap="round"/>
</svg>
