<svg width="48" height="49" viewBox="0 0 48 49" fill="none" xmlns="http://www.w3.org/2000/svg">
<circle cx="24" cy="24.5217" r="24" fill="#00A827"/>
<path d="M32.6249 38.5217C32.4145 38.5225 32.2091 38.4569 32.0381 38.3342L23.9999 32.5067L15.9618 38.3342C15.7901 38.4588 15.5832 38.5255 15.371 38.5247C15.1589 38.5239 14.9525 38.4557 14.7817 38.3299C14.6109 38.2041 14.4845 38.0272 14.4208 37.8249C14.3571 37.6225 14.3594 37.4052 14.4274 37.2042L17.5624 27.9186L9.43744 22.3467C9.26144 22.2262 9.12861 22.0525 9.05836 21.8511C8.9881 21.6496 8.98409 21.431 9.04693 21.2272C9.10976 21.0233 9.23614 20.8449 9.4076 20.718C9.57906 20.591 9.78661 20.5223 9.99994 20.5217H20.0237L23.0487 11.2123C23.1139 11.0113 23.241 10.8362 23.4119 10.7119C23.5828 10.5877 23.7886 10.5208 23.9999 10.5208C24.2112 10.5208 24.4171 10.5877 24.588 10.7119C24.7589 10.8362 24.886 11.0113 24.9512 11.2123L27.9762 20.5248H37.9999C38.2135 20.5247 38.4215 20.593 38.5935 20.7197C38.7655 20.8464 38.8924 21.0248 38.9556 21.2288C39.0188 21.4328 39.0151 21.6517 38.9449 21.8534C38.8747 22.0552 38.7418 22.2291 38.5656 22.3498L30.4374 27.9186L33.5706 37.2017C33.6213 37.352 33.6356 37.5122 33.6122 37.6691C33.5888 37.826 33.5285 37.9751 33.4361 38.1041C33.3437 38.233 33.2219 38.3382 33.0809 38.4108C32.9399 38.4834 32.7836 38.5214 32.6249 38.5217Z" fill="white"/>
</svg>
