<svg width="34" height="34" viewBox="0 0 34 34" fill="none" xmlns="http://www.w3.org/2000/svg">
<path d="M31.3477 22.1797L21.7746 21.7726C21.4685 21.7487 20.1875 21.6923 20.1875 20.0547C20.1875 18.4736 21.4598 18.3726 21.7905 18.3361L31.3477 17.9297C32.1891 17.9383 32.9375 18.8879 32.9375 20.0547C32.9375 21.2214 32.1891 22.1711 31.3477 22.1797ZM21.9546 13.436L29.0428 12.8828C29.8828 12.8828 30.8125 13.9905 30.8125 15.1327V15.1546C30.8125 16.2383 30.0727 17.1215 29.1603 17.1328L21.9586 17.0179C20.1875 16.8008 20.1875 15.727 20.1875 15.2655C20.1875 13.7461 21.6352 13.4625 21.9546 13.436ZM28.0135 31.875L22.0788 31.282C20.4531 31.2202 20.1875 30.1365 20.1875 29.4571C20.1875 28.2366 21.078 27.8236 21.9586 27.8236L28.0015 27.6243C28.9671 27.6396 29.7493 28.5872 29.7493 29.7493C29.7493 30.9114 28.9744 31.8524 28.0135 31.875ZM30.2952 27.127L21.9014 26.7146C21.2779 26.6727 20.1875 26.5154 20.1875 24.9634C20.1875 24.1666 20.4764 23.2628 21.8477 23.1353L30.2939 22.8776C31.1678 22.8869 31.875 23.7734 31.875 24.9628C31.875 26.1521 31.1678 27.1163 30.2952 27.1263V27.127Z" fill="#00DB33"/>
<path d="M9.25328 15.462L9.31969 15.3292C9.2236 15.5326 9.06643 15.7009 8.87012 15.8107C9.0241 15.7271 9.15556 15.6075 9.25328 15.462Z" fill="#00DB33"/>
<path d="M20.9884 3.4943C20.3621 2.61109 19.3242 2.125 18.0625 2.125C17.8652 2.12498 17.6718 2.17989 17.504 2.28357C17.3362 2.38725 17.2005 2.53561 17.1122 2.71203C16.913 3.11512 16.0995 4.30578 15.2402 5.56152C14.0449 7.31 12.5607 9.48414 11.5726 11.1928L11.564 11.208C10.204 13.5648 9.54856 14.8557 9.31813 15.3252L9.25172 15.458C9.15338 15.6029 9.02147 15.7218 8.86723 15.8047C8.71422 15.89 8.54233 15.9356 8.36719 15.9375H6.68645C5.9479 15.9375 5.21658 16.083 4.53425 16.3656C3.85193 16.6482 3.23195 17.0625 2.70972 17.5847C1.65502 18.6394 1.0625 20.0699 1.0625 21.5614V24.1254C1.06241 24.864 1.20782 25.5954 1.49041 26.2778C1.773 26.9602 2.18724 27.5802 2.70948 28.1026C3.23172 28.6249 3.85173 29.0392 4.5341 29.3218C5.21647 29.6045 5.94784 29.75 6.68645 29.75H9.92641C10.1526 29.7509 10.3736 29.8176 10.5626 29.9419C12.0859 30.9367 14.964 31.875 18.0625 31.875C18.5572 31.875 19.0048 31.8657 19.4086 31.8498C19.5047 31.8463 19.5982 31.8168 19.6789 31.7644C19.7597 31.712 19.8246 31.6387 19.8669 31.5522C19.9092 31.4657 19.9272 31.3694 19.919 31.2735C19.9108 31.1776 19.8766 31.0858 19.8203 31.0077L19.8136 30.9984C19.2445 30.1757 19.125 29.2852 19.125 28.6875C19.124 28.1212 19.2414 27.5609 19.4696 27.0426C19.5347 26.8957 19.5683 26.7368 19.5683 26.5761C19.5683 26.4154 19.5347 26.2565 19.4696 26.1096C19.2425 25.5811 19.1254 25.0118 19.1254 24.4365C19.1254 23.8612 19.2425 23.2919 19.4696 22.7634C19.5343 22.617 19.5678 22.4586 19.5678 22.2986C19.5678 22.1385 19.5343 21.9801 19.4696 21.8337C19.2436 21.3142 19.127 20.7537 19.127 20.1872C19.127 19.6206 19.2436 19.0601 19.4696 18.5406C19.5376 18.3871 19.5727 18.2211 19.5727 18.0532C19.5727 17.8853 19.5376 17.7193 19.4696 17.5658C19.2328 17.0327 19.1151 16.4543 19.125 15.8711C19.125 15.3266 19.2578 14.4566 19.6562 13.7999C19.7368 13.6645 19.7854 13.5127 19.7985 13.3557C19.8116 13.1988 19.7889 13.0409 19.732 12.8941C19.7067 12.8277 19.6815 12.7566 19.6569 12.6836C19.5774 12.4354 19.5578 12.1718 19.5998 11.9146C19.799 10.6303 20.242 9.50473 20.7114 8.31805C20.916 7.80141 21.1278 7.2675 21.3237 6.70703C21.7314 5.54027 21.6093 4.36953 20.9884 3.4943Z" fill="#00DB33"/>
</svg>
