<svg width="42" height="42" viewBox="0 0 42 42" fill="none" xmlns="http://www.w3.org/2000/svg">
<path d="M26.25 37.5834C26.25 37.5834 24.9375 38.0625 21 38.0625C17.0625 38.0625 14.9297 36.75 13.125 35.4375H7.875C6.48261 35.4375 5.14726 34.8844 4.16269 33.8998C3.17812 32.9152 2.625 31.5799 2.625 30.1875V26.25C2.625 24.8576 3.17812 23.5223 4.16269 22.5377C5.14726 21.5531 6.48261 21 7.875 21H10.3359C10.7867 20.9975 11.2293 20.8802 11.6222 20.6592C12.015 20.4382 12.345 20.1207 12.5811 19.7367C12.5811 19.7367 13.2891 18.1954 15.4219 14.5015C17.5547 10.8076 21.6562 5.25 22.3125 3.9375C24.6914 3.9375 25.8398 5.74219 25.1016 7.85121C24.2583 10.2621 23.1566 12.3121 22.849 14.9953C22.8047 15.3874 23.1066 15.9797 23.5011 15.9797L34.125 16.8164" stroke="#00A827" stroke-width="2" stroke-linecap="round" stroke-linejoin="round"/>
<path d="M34.125 22.2305L27.5625 22.0664C25.9219 21.9155 24.9375 21.0492 24.9375 19.6055C24.9375 18.1617 26.0859 17.2397 27.5625 17.1445L34.125 16.8164C35.5688 16.8164 36.75 18.1617 36.75 19.6055V19.6194C36.7463 20.3132 36.4681 20.9773 35.9762 21.4666C35.4844 21.9558 34.8188 22.2305 34.125 22.2305ZM36.75 27.5625L27.5625 27.3984C26.0859 27.3295 24.9375 26.3804 24.9375 24.9375C24.9375 23.4929 26.0859 22.5701 27.5625 22.4766L36.75 22.3125C37.4455 22.3147 38.112 22.5919 38.6038 23.0837C39.0956 23.5755 39.3728 24.242 39.375 24.9375C39.3728 25.633 39.0956 26.2995 38.6038 26.7913C38.112 27.2831 37.4455 27.5603 36.75 27.5625ZM32.8125 38.0625L27.5625 37.8164C25.8398 37.6655 24.9375 36.8813 24.9375 35.4375C24.9375 33.9937 26.1187 32.9766 27.5625 32.9766L32.8125 32.8125C33.5081 32.8144 34.1746 33.0916 34.6665 33.5835C35.1584 34.0754 35.4356 34.7419 35.4375 35.4375C35.4356 36.1331 35.1584 36.7996 34.6665 37.2915C34.1746 37.7834 33.5081 38.0606 32.8125 38.0625ZM35.4375 32.8125L27.5625 32.6484C26.0039 32.5795 24.9375 31.6313 24.9375 30.1875C24.9375 28.7437 26.0039 27.8217 27.5625 27.7266L35.4375 27.5625C36.1331 27.5644 36.7996 27.8416 37.2915 28.3335C37.7834 28.8254 38.0606 29.4919 38.0625 30.1875C38.0606 30.8831 37.7834 31.5496 37.2915 32.0415C36.7996 32.5334 36.1331 32.8106 35.4375 32.8125Z" stroke="#00A827" stroke-width="2" stroke-miterlimit="10"/>
</svg>
