<svg width="34" height="35" viewBox="0 0 34 35" fill="none" xmlns="http://www.w3.org/2000/svg">
<path d="M21.25 30.9425C21.25 30.9425 20.1875 31.3303 17 31.3303C13.8125 31.3303 12.0859 30.2678 10.625 29.2053H6.375C5.24783 29.2053 4.16683 28.7576 3.3698 27.9605C2.57277 27.1635 2.125 26.0825 2.125 24.9553V21.7678C2.125 20.6407 2.57277 19.5596 3.3698 18.7626C4.16683 17.9656 5.24783 17.5178 6.375 17.5178H8.36719C8.73207 17.5158 9.09042 17.4209 9.40842 17.2419C9.72643 17.063 9.9936 16.806 10.1847 16.4952C10.1847 16.4952 10.7578 15.2474 12.4844 12.2571C14.2109 9.26685 17.5312 4.76782 18.0625 3.70532C19.9883 3.70532 20.918 5.16626 20.3203 6.87356C19.6377 8.82524 18.7458 10.4847 18.4968 12.6569C18.4609 12.9743 18.7053 13.4538 19.0247 13.4538L27.625 14.1311" stroke="#00DB33" stroke-width="2" stroke-linecap="round" stroke-linejoin="round"/>
<path d="M27.625 18.5139L22.3125 18.3811C20.9844 18.2589 20.1875 17.5577 20.1875 16.3889C20.1875 15.2202 21.1172 14.4738 22.3125 14.3967L27.625 14.1311C28.7938 14.1311 29.75 15.2202 29.75 16.3889V16.4002C29.747 16.9618 29.5218 17.4994 29.1236 17.8955C28.7254 18.2916 28.1866 18.5139 27.625 18.5139ZM29.75 22.8303L22.3125 22.6975C21.1172 22.6417 20.1875 21.8734 20.1875 20.7053C20.1875 19.5359 21.1172 18.7888 22.3125 18.7131L29.75 18.5803C30.313 18.5821 30.8525 18.8065 31.2507 19.2047C31.6488 19.6028 31.8732 20.1423 31.875 20.7053C31.8732 21.2684 31.6488 21.8079 31.2507 22.206C30.8525 22.6041 30.313 22.8286 29.75 22.8303ZM26.5625 31.3303L22.3125 31.1311C20.918 31.0089 20.1875 30.3741 20.1875 29.2053C20.1875 28.0366 21.1437 27.2131 22.3125 27.2131L26.5625 27.0803C27.1256 27.0819 27.6652 27.3063 28.0634 27.7045C28.4615 28.1026 28.6859 28.6422 28.6875 29.2053C28.6859 29.7684 28.4615 30.308 28.0634 30.7062C27.6652 31.1044 27.1256 31.3287 26.5625 31.3303ZM28.6875 27.0803L22.3125 26.9475C21.0508 26.8917 20.1875 26.1241 20.1875 24.9553C20.1875 23.7866 21.0508 23.0402 22.3125 22.9631L28.6875 22.8303C29.2506 22.8319 29.7902 23.0563 30.1884 23.4545C30.5865 23.8526 30.8109 24.3922 30.8125 24.9553C30.8109 25.5184 30.5865 26.058 30.1884 26.4562C29.7902 26.8544 29.2506 27.0787 28.6875 27.0803Z" stroke="#00DB33" stroke-width="2" stroke-miterlimit="10"/>
</svg>
